{"title":"T-Pain Ft. B.o.B - Up Down [Do This All Day] [Explicit] 1080p [S","uid":10916205,"size":125581040,"categoryP":"video","categoryS":"music_videos","magnet":"?xt=urn:btih:24c9903b06074c2c2930c47635d91415d2065747&amp;dn=T-Pain+Ft.+B.o.B+-+Up+Down+%5BDo+This+All+Day%5D+%5BExplicit%5D+1080p+%5BS&amp;tr=udp%3A%2F%2Ftracker.openbittorrent.com%3A80&amp;tr=udp%3A%2F%2Fopen.demonii.com%3A1337&amp;tr=udp%3A%2F%2Ftracker.coppersurfer.tk%3A6969&amp;tr=udp%3A%2F%2Fexodus.desync.com%3A6969","seeders":8,"leechers":7,"uploader":"Sbyky","files":1,"time":1409309871,"description":"\n\nGeneral\nComplete name                            : T-Pain Ft. B.o.B - Up Down [Do This All Day] [Explicit] 1080p [Sbyky].mp4\nFormat                                   : MPEG-4\nFormat profile                           : Base Media\nCodec ID                                 : isom\nFile size                                : 120 MiB\nDuration                                 : 4mn 27s\nOverall bit rate mode                    : Variable\nOverall bit rate                         : 3 749 Kbps\nEncoded date                             : UTC 2014-03-07 13:07:45\nTagged date                              : UTC 2014-03-07 13:07:45\n\nVideo\nID                                       : 1\nFormat                                   : AVC\nFormat/Info                              : Advanced Video Codec\nFormat profile                           : &lt;a class=&quot;__cf_email__&quot; href=&quot;/cdn-cgi/l/email-protection&quot; data-cfemail=&quot;743c1d131c3438405a44&quot;&gt;[email&amp;#160;protected]&lt;/a&gt;&lt;script cf-hash='f9e31' type=&quot;text/javascript&quot;&gt;\n/* &lt;![CDATA[ */!function(){try{var t=&quot;currentScript&quot;in document?document.currentScript:function(){for(var t=document.getElementsByTagName(&quot;script&quot;),e=t.length;e--;)if(t[e].getAttribute(&quot;cf-hash&quot;))return t[e]}();if(t&amp;&amp;t.previousSibling){var e,r,n,i,c=t.previousSibling,a=c.getAttribute(&quot;data-cfemail&quot;);if(a){for(e=&quot;&quot;,r=parseInt(a.substr(0,2),16),n=2;a.length-n;n+=2)i=parseInt(a.substr(n,2),16)^r,e+=String.fromCharCode(i);e=document.createTextNode(e),c.parentNode.replaceChild(e,c)}}}catch(u){}}();/* ]]&gt; */&lt;/script&gt;\nFormat settings, CABAC                   : Yes\nFormat settings, ReFrames                : 3 frames\nCodec ID                                 : avc1\nCodec ID/Info                            : Advanced Video Coding\nDuration                                 : 4mn 27s\nDuration_LastFrame                       : -40ms\nBit rate                                 : 3 621 Kbps\nWidth                                    : 1 920 pixels\nHeight                                   : 1 080 pixels\nDisplay aspect ratio                     : 16:9\nFrame rate mode                          : Constant\nFrame rate                               : 23.976 fps\nColor space                              : YUV\nChroma subsampling                       : 4:2:0\nBit depth                                : 8 bits\nScan type                                : Progressive\nBits/(Pixel*Frame)                       : 0.073\nStream size                              : 116 MiB (97%)\nEncoded date                             : UTC 2014-03-07 13:07:45\nTagged date                              : UTC 2014-03-07 13:07:45\n\nAudio\nID                                       : 2\nFormat                                   : AAC\nFormat/Info                              : Advanced Audio Codec\nFormat profile                           : LC\nCodec ID                                 : 40\nDuration                                 : 4mn 27s\nBit rate mode                            : Variable\nBit rate                                 : 126 Kbps\nChannel(s)                               : 2 channels\nChannel positions                        : Front: L R\nSampling rate                            : 44.1 KHz\nCompression mode                         : Lossy\nStream size                              : 4.01 MiB (3%)\nEncoded date                             : UTC 2014-03-07 09:25:44\nTagged date                              : UTC 2014-03-07 09:25:44\n\nShared By Sbyky\n","torrent":{"xt":"urn:btih:24c9903b06074c2c2930c47635d91415d2065747","amp;dn":"T-Pain+Ft.+B.o.B+-+Up+Down+%5BDo+This+All+Day%5D+%5BExplicit%5D+1080p+%5BS","amp;tr":["udp%3A%2F%2Ftracker.openbittorrent.com%3A80","udp%3A%2F%2Fopen.demonii.com%3A1337","udp%3A%2F%2Ftracker.coppersurfer.tk%3A6969","udp%3A%2F%2Fexodus.desync.com%3A6969"],"infoHash":"24c9903b06074c2c2930c47635d91415d2065747","infoHashBuffer":{"type":"Buffer","data":[36,201,144,59,6,7,76,44,41,48,196,118,53,217,20,21,210,6,87,71]},"announce":[],"urlList":[]}}